<svg xmlns="http://www.w3.org/2000/svg" viewBox="0 0 245.33 191.2">
  <defs>
    <style>
      .cls-1 {
        fill: #00b3ff;
      }

      .cls-2 {
        fill: #009dff;
      }

      .cls-3, .cls-5 {
        fill: #fff;
      }

      .cls-3 {
        stroke: #fff;
        stroke-linecap: round;
        stroke-miterlimit: 10;
      }

      .cls-4 {
        fill: #ff93af;
      }

      .cls-6 {
        fill: #eae36d;
      }

      .cls-7 {
        fill: #4f3f72;
      }

      .cls-8 {
        fill: #ff658c;
      }
    </style>
  </defs>
  <title>shark</title>
  <g id="Livello_2" data-name="Livello 2">
    <g id="Livello_1-2" data-name="Livello 1">
      <path class="cls-1" d="M31.18,81.2c5.07-11.59,15.12-17.31,20-20,15.28-8.42,33.26-9,36-9,9-.18,14.83,1.19,19-3,2.59-2.61,2.32-5.11,5-14a122.45,122.45,0,0,1,6-16c4.92-10,14.7-20.81,19-19,2.32,1,.41,46.81,2,49a6,6,0,0,0,4,2,57.7,57.7,0,0,0,6.9.21c3.53,0,7.19-.15,8.1-.21,4.46-.31,8,.46,15,2,27,5.91,38,27,38,27s8.81,16.92,3,40a58.53,58.53,0,0,1-5.31,14c-3.59,6.1-6.26,7.17-5.67,9,1.6,5.05,23.53,5.87,37,5,2.24-.15,5.31-.41,6,1,1.33,2.69-6.87,9.82-14,14-6.21,3.64-16.28,9.54-25,6-6.41-2.61-8.6-8.93-13-8-2.71.57-4.13,3.47-5,5a121.57,121.57,0,0,1-9.17,9.53c-4.64,4.41-9.53,6.21-15.83,8.47-13.62,4.87-27.23,5.79-36,6-13.7.32-27.78.65-44-6-9.9-4.06-25.37-12.68-28-18.08-.22-.44-1.15-2.47-3-2.92-2.14-.54-4.29,1.43-5,2-5.51,4.48-19.08,2.16-27-1-12.54-5-21.6-16.41-20-19,.52-.83,1.78-.21,10,0,6.47.16,5.74-.22,11,0a58.56,58.56,0,0,0,10,0c4.78-.51,5.65-1.39,6-2,1.25-2.15-1.21-5.63-2-7-7.83-13.72-7.22-31.4-7-38C28.39,92.21,28.56,87.2,31.18,81.2Z"/>
      <path class="cls-2" d="M29.18,112.2a53.3,53.3,0,0,1,22-15c8.1-2.84,15.09-2.91,23-3a46.76,46.76,0,0,1,11,1,44.65,44.65,0,0,1,9,3,135.07,135.07,0,0,0,21,4,137,137,0,0,0,28,0c11.95-1.21,16.43-3.24,18-4,5.19-2.51,4.72-3.76,10-6,3.61-1.53,8.46-2.38,18-4a31.5,31.5,0,0,1,18,8,29.37,29.37,0,0,1,6,8c5.75,12.29-3.05,30.92-10.49,43.27-4.41,7.31-16.51,27.73-16.51,2.73,0-6.1-9.78-10.14-17.64-15.08a79.1,79.1,0,0,0-11.36-5.92,68.24,68.24,0,0,0-27-7,116.71,116.71,0,0,0-16,1,115.05,115.05,0,0,0-15,3c-4.46,1.44-9.14,3.1-14,5s-9.64,4-14,6c-4.63,2.16-18.26,1-15.63,18s-5.78,6.09-7.37,4c-2.68-3.55-13.5-24.43-16-30C29.17,122.46,29.21,113.48,29.18,112.2Z"/>
      <ellipse class="cls-3" cx="121.68" cy="155.2" rx="70" ry="35.5"/>
      <path class="cls-4" d="M127.68,141.7c9.57-.41,11.81-1,27-2,17.21-1.13,20.54-2.19,22,0,3,4.47-5.17,16-13,23-15.58,14-35.22,14.83-41,15-3.24.1-32.36.61-50-19-3.86-4.3-10.51-13.31-8-17,1.35-2,4.71-1.54,13-1,8,.52,16,.54,24,1A242.18,242.18,0,0,0,127.68,141.7Z"/>
      <g>
        <ellipse class="cls-5" cx="186.45" cy="101.94" rx="20.24" ry="27.76"/>
        <ellipse class="cls-5" cx="58.45" cy="101.94" rx="20.24" ry="27.76"/>
        <ellipse class="cls-6" cx="186.45" cy="101.46" rx="16.24" ry="22.27"/>
        <ellipse class="cls-6" cx="58.45" cy="101.46" rx="16.24" ry="22.27"/>
        <ellipse class="cls-7" cx="58.18" cy="102.2" rx="12.5" ry="17.5"/>
        <circle class="cls-3" cx="54.68" cy="95.18" r="7.02"/>
        <ellipse class="cls-7" cx="186.18" cy="102.2" rx="12.5" ry="17.5"/>
        <circle class="cls-3" cx="189.3" cy="95.18" r="7.02"/>
      </g>
      <path class="cls-8" d="M120.74,154.9c15.33,0,30.52,10,29.53,15.5-1.21,6.74-26.85,6.79-29.09,6.8s-28.8-.09-30-7C90.23,164.69,105.46,154.86,120.74,154.9Z"/>
    </g>
  </g>
</svg>
